<svg xmlns="http://www.w3.org/2000/svg" xmlns:xlink="http://www.w3.org/1999/xlink" fill="none" height="1005" viewBox="0 0 1440 1005" width="1440">    <linearGradient xmlns="http://www.w3.org/2000/svg" id="a" gradientUnits="userSpaceOnUse" x1="410" x2="-160.5" y1="46.9997" y2="617.5">
        <stop offset="0" stop-color="#fff"/>
        <stop offset="1" stop-color="#105e8b"/>
    </linearGradient>
    <path xmlns="http://www.w3.org/2000/svg" clip-rule="evenodd" d="m811.874-977.921c0 43.674-35.1 79.079-78.399 79.079s-78.4-35.405-78.4-79.079c0-43.679 35.101-79.079 78.4-79.079s78.399 35.4 78.399 79.079zm173.572 132.677c0 43.674-35.101 79.079-78.4 79.079s-78.4-35.405-78.4-79.079 35.101-79.079 78.4-79.079 78.4 35.405 78.4 79.079zm-301.834 305.115c-15.777.017-31.204-4.689-44.328-13.522-13.123-8.833-23.353-21.395-29.393-36.097-6.04-14.701-7.619-30.88-4.536-46.487s10.688-29.94 21.853-41.185l48.129-48.545c15.03-14.599 35.136-22.67 56.001-22.482 20.864.189 40.824 8.622 55.592 23.49 14.769 14.867 23.168 34.984 23.396 56.029.227 21.045-7.736 41.341-22.18 56.529l-48.129 48.546c-7.378 7.522-16.163 13.492-25.845 17.565-9.682 4.072-20.069 6.166-30.56 6.159zm-384.822 388.585c-10.476.048-20.858-2.006-30.541-6.041s-18.475-9.971-25.863-17.463c-14.855-15.1-23.191-35.511-23.191-56.783 0-21.273 8.336-41.683 23.191-56.784l241.08-242.948c7.392-7.486 16.175-13.43 25.845-17.492s20.039-6.164 30.514-6.184c10.475-.021 20.852 2.04 30.537 6.065 9.686 4.025 18.491 9.934 25.912 17.391 7.422 7.457 13.315 16.315 17.342 26.069s6.11 20.213 6.131 30.779c.02 10.566-2.023 21.032-6.013 30.802-3.99 9.769-9.849 18.65-17.242 26.136l-241.297 242.949c-7.389 7.492-16.18 13.428-25.863 17.463s-20.065 6.089-30.542 6.041zm995.9 532.247c-15.77.017-31.2-4.688-44.32-13.521-13.13-8.833-23.36-21.396-29.4-36.097-6.04-14.702-7.62-30.881-4.53-46.488 3.08-15.607 10.68-29.94 21.85-41.184l338.21-341.5781c7.35-7.7019 16.15-13.8469 25.89-18.0759 9.73-4.229 20.21-6.456 30.81-6.552s21.11 1.942 30.92 5.994c9.81 4.053 18.72 10.038 26.21 17.6056 7.49 7.5678 13.4 16.566 17.4 26.4684s6 20.5098 5.88 31.2013c-.11 10.6915-2.34 21.2525-6.55 31.0646-4.21 9.812249-10.32 18.67858-17.97 26.0802l-338.65 341.5779c-14.79 14.932-34.82 23.377-55.75 23.504zm-192.73 194.404c-15.78.017-31.2-4.689-44.33-13.522-13.12-8.833-23.35-21.395-29.39-36.097-6.04-14.701-7.62-30.88-4.54-46.487 3.09-15.607 10.69-29.941 21.86-41.185l49.65-50.083c15.06-14.569 35.18-22.602 56.04-22.373 20.87.229 40.81 8.702 55.55 23.598 14.74 14.897 23.1 35.029 23.29 56.075.19 21.045-7.81 41.326-22.29 56.486l-49.43 50.084c-15.01 15.011-35.27 23.455-56.41 23.504zm-470.298 416.141c13.123 8.832 28.551 13.542 44.328 13.522 21.077-.01 41.288-8.466 56.186-23.505l282.024-284.026c14.44-15.188 22.41-35.484 22.18-56.529s-8.63-41.161-23.4-56.029c-14.765-14.868-34.725-23.301-55.59-23.49-20.864-.188-40.97 7.883-56 22.482l-281.805 283.806c-11.164 11.244-18.77 25.577-21.852 41.184-3.083 15.607-1.505 31.786 4.535 46.488 6.04 14.701 16.27 27.264 29.394 36.097zm-765.243-765.999c13.21 8.998 28.79 13.795 44.7293 13.771 10.6923-.137 21.2452-2.467 31.0167-6.848 9.7716-4.38 18.5575-10.72 25.8232-18.634l243.9108-241.6305c7.678-7.3603 13.825-16.1903 18.081-25.9742s6.536-20.3256 6.706-31.0085c.171-10.6829-1.771-21.2928-5.712-31.2098-3.942-9.917-9.804-18.943-17.243-26.548-7.439-7.606-16.307-13.64-26.084-17.75-9.778-4.109-20.27-6.211-30.862-6.184-10.593.028-21.074 2.185-30.83 6.345-9.757 4.16-18.593 10.24-25.9936 17.884l-243.9104 242.949c-11.541 11.09-19.521 25.415-22.908 41.125-3.388 15.71-2.028 32.084 3.904 47.006 5.932 14.923 16.163 27.709 29.372 36.707zm784.089-116.271c-15.731-.086-31.087-4.853-44.144-13.7036-13.057-8.8504-23.234-21.3905-29.256-36.0491-6.022-14.6585-7.622-30.7838-4.599-46.3553 3.023-15.57166 10.535-29.8972 21.594-41.1818l49.653-50.0833c15.058-14.5691 35.18-22.6019 56.044-22.3719 20.865.229 40.808 8.7011 55.548 23.5974 14.74 14.8965 23.101 35.0289 23.288 56.0744.187 21.0453953-7.816 41.3258-22.289 56.4861l-49.653 49.8637c-7.337 7.5155-16.084 13.4836-25.73 17.5564-9.646 4.073-19.999 6.169-30.456 6.167zm293.807-355.367c13.077 8.822 28.45 13.544 44.182 13.57 10.444.043 20.793-2.014 30.443-6.049 9.64-4.036 18.4-9.97 25.74-17.455l192.74-194.403c13.76-15.29 21.16-35.336 20.67-55.981-.5-20.645-8.85-40.308-23.33-54.91-14.47-14.603-33.97-23.027-54.43-23.525-20.47-.498-40.35 6.968-55.5 20.849l-192.737 194.403c-11.09 11.256-18.63 25.57-21.67 41.14-3.04 15.569-1.444 31.698 4.587 46.354 6.032 14.657 16.228 27.185 29.305 36.007zm-823.883 889.81c-15.733-.026-31.1056-4.747-44.1826-13.569-13.077-8.823-23.2734-21.351-29.3045-36.007-6.031-14.657-7.6272-30.785-4.5874-46.355s10.5797-29.884 21.6698-41.139l385.4667-388.806c15.03-14.598 35.136-22.6699 56.001-22.4814 20.864.1886 40.824 8.6224 55.592 23.4894 14.769 14.868 23.168 34.984 23.396 56.029.227 21.045-7.737 41.341-22.181 56.529l-385.684 388.806c-7.348 7.486-16.101 13.42-25.748 17.455-9.647 4.036-19.995 6.092-30.438 6.049zm806-814.296c0 43.675-35.101 79.0797-78.4 79.0797s-78.4-35.4047-78.4-79.0797c0-43.674 35.101-79.079 78.4-79.079s78.4 35.405 78.4 79.079zm-685.136-230.207c-15.777.017-31.204-4.689-44.328-13.522-13.124-8.832-23.353-21.395-29.393-36.097-6.04-14.701-7.619-30.88-4.536-46.487s10.688-29.94 21.853-41.184l49.653-49.864c15.158-13.882 35.032-21.347 55.5-20.849s39.961 8.921 54.439 23.524c14.477 14.603 22.828 34.265 23.322 54.91.494 20.646-6.908 40.691-20.67 55.981l-49.654 50.084c-14.898 15.039-35.108 23.493-56.186 23.504zm-526.165 472.5897c13.07 8.8938 28.462 13.678 44.229 13.7472 10.502-.0462 20.891-2.1852 30.571-6.2942s18.459-10.1069 25.833-17.6492l339.08-341.5785c14.473-15.16 22.475-35.44 22.288-56.486-.187-21.045-8.548-41.178-23.288-56.074-14.74-14.897-34.683-23.369-55.5474-23.598s-40.9858 7.803-56.0438 22.372l-338.6438 341.7979c-11.201 11.1927-18.859 25.4846-22.005 41.0677-3.147 15.58327-1.641 31.7578 4.327 46.4777 5.968 14.7198 16.129 27.3237 29.2 36.2174zm720.213-668.5307c-10.513.077-20.936-1.962-30.659-5.998-9.722-4.036-18.549-9.987-25.963-17.506-14.855-15.1-23.191-35.51-23.191-56.783s8.336-41.683 23.191-56.783l144.604-145.858c15.058-14.569 35.18-22.601 56.044-22.372 20.865.229 40.808 8.702 55.548 23.598 14.74 14.897 23.101 35.029 23.288 56.075.187 21.045-7.816 41.325-22.289 56.486l-144.386 145.637c-7.363 7.466-16.119 13.387-25.763 17.421-9.643 4.034-19.984 6.102-30.424 6.083zm415.082 810.342c-15.777.017-31.205-4.689-44.328-13.522-13.124-8.833-23.353-21.396-29.393-36.097s-7.619-30.88-4.536-46.487c3.082-15.607 10.688-29.9403 21.852-41.1844l49.654-49.8638c15.158-13.8817 35.032-21.34717 55.5-20.84913 20.468.49805 39.961 8.92153 54.438 23.52433 14.478 14.6027 22.829 34.2649 23.323 54.9104.494 20.6456-6.908 40.6906-20.67 55.9806l-49.654 50.084c-14.898 15.038-35.109 23.493-56.186 23.504zm-526.375 473.123c13.113 8.976 28.58 13.806 44.428 13.873 10.547-.132 20.965-2.375 30.647-6.598s18.437-10.343 25.757-18.005l338.644-341.578c7.65-7.401 13.759-16.268 17.971-26.08 4.211-9.812 6.44-20.373 6.555-31.065.115-10.691-1.885-21.299-5.883-31.201-3.999-9.902-9.915-18.901-17.403-26.469-7.489-7.567-16.398-13.553-26.208-17.605-9.809-4.052-20.322-6.09-30.922-5.994s-21.074 2.323-30.81 6.552-18.538 10.374-25.891 18.076l-337.555 341.798c-11.388 11.116-19.232 25.404-22.53 41.038-3.299 15.635-1.902 31.906 4.012 46.736 5.913 14.83 16.076 27.545 29.188 36.522zm720.419-669.0637c-10.48.0476-20.86-2.0057-30.54-6.0407-9.69-4.03499-18.479-9.97127-25.868-17.46358-14.855-15.10022-23.19-35.51062-23.19-56.78322s8.335-41.6828 23.19-56.7828l144.608-145.857c15.05-14.57 35.18-22.602 56.04-22.373s40.81 8.702 55.55 23.598c14.74 14.897 23.1 35.029 23.29 56.075.18 21.045-7.82 41.325-22.29 56.486l-144.39 145.63702c-7.39 7.49231-16.18 13.42859-25.86 17.46358-9.69 4.035-20.07 6.0883-30.54 6.0407zm365.43-369.6953c0 43.675-35.1 79.08-78.4 79.08s-78.4-35.405-78.4-79.08c0-43.674 35.1-79.079 78.4-79.079s78.4 35.405 78.4 79.079zm-556.864 870.75c-15.73-.087-31.086-4.854-44.143-13.704-13.057-8.851-23.234-21.39-29.256-36.049s-7.622-30.784-4.599-46.356c3.023-15.571 10.535-29.897 21.594-41.181l240.858-242.949c15.03-14.598 35.14-22.67 56.01-22.482 20.86.189 40.82 8.622 55.59 23.49s23.17 34.984 23.39 56.029c.23 21.045-7.73 41.341-22.18 56.529l-240.859 242.949c-7.378 7.522-16.162 13.493-25.845 17.565-9.682 4.072-20.069 6.166-30.56 6.159zm340.294-402.901c13.1 8.877 28.52 13.63 44.31 13.656 20.91-.174 40.93-8.612 55.75-23.504l244.13-241.192c14.59-15.07 22.73-35.312 22.67-56.375-.05-21.062-8.3-41.262-22.96-56.256-14.67-14.994-34.58-23.584-55.46-23.923s-41.05 7.6-56.19 22.109l-243.91 241.6311c-11.21 11.20593-18.88 25.5179-22.02 41.1216-3.14 15.6035-1.61 31.796 4.38 46.5248 6 14.7287 16.19 27.3305 29.3 36.2075zm-533.024 597.084c-15.733-.026-31.106-4.747-44.183-13.57-13.077-8.822-23.273-21.35-29.304-36.006-6.031-14.657-7.627-30.786-4.587-46.355 3.039-15.57 10.579-29.884 21.669-41.139l48.347-48.546c7.253-8.059 16.053-14.548 25.867-19.074 9.813-4.526 20.436-6.996 31.224-7.258 10.787-.263 21.516 1.687 31.534 5.73 10.019 4.044 19.119 10.098 26.749 17.794 7.63 7.697 13.632 16.876 17.641 26.981s5.942 20.926 5.681 31.808c-.26 10.881-2.708 21.595-7.195 31.494-4.488 9.898-10.921 18.775-18.91 26.091l-48.129 48.546c-7.389 7.492-16.18 13.428-25.863 17.463s-20.065 6.089-30.541 6.041zm-61.634 61.066c0 43.675-35.101 79.08-78.4 79.08s-78.4-35.405-78.4-79.08c0-43.674 35.101-79.078 78.4-79.078s78.4 35.404 78.4 79.078zm-100.177-818.2495c-15.732-.026-31.105-4.7473-44.182-13.5695s-23.273-21.3507-29.305-36.007c-6.031-14.656-7.627-30.785-4.587-46.355 3.04-15.569 10.58-29.884 21.67-41.139l194.04-195.941c14.959-15.089 35.248-23.566 56.404-23.566s41.445 8.477 56.404 23.566c14.96 15.089 23.364 35.554 23.364 56.893s-8.404 41.805-23.364 56.894l-194.257 195.2811c-7.312 7.5652-16.049 13.5802-25.698 17.6919-9.648 4.1117-20.014 6.2372-30.489 6.2515zm294.684-354.7085c13.077 8.823 28.449 13.544 44.182 13.57 10.521 0 20.939-2.096 30.656-6.167s18.541-10.038 25.966-17.557l192.077-195.062c14.42-15.215 22.35-35.528 22.09-56.576-.27-21.047-8.71-41.15-23.51-55.99-14.8-14.841-34.78-23.236-55.64-23.382-20.87-.145-40.963 7.969-55.964 22.602l-192.08 195.062c-11.09 11.255-18.629 25.569-21.669 41.139s-1.444 31.698 4.587 46.355c6.031 14.656 16.228 27.184 29.305 36.006zm-583.887 646.423c-15.758-.026-31.156-4.763-44.246-13.613-13.09-8.849-23.286-21.415-29.299-36.107-6.013-14.693-7.573-30.853-4.484-46.44 3.09-15.586 10.691-29.899 21.842-41.13l144.387-145.6378c7.338-7.7161 16.128-13.8784 25.856-18.1262s20.198-6.4957 30.798-6.6122c10.599-.1164 21.116 1.901 30.933 5.9341s18.739 10.0009 26.241 17.5541c7.503 7.5532 13.437 16.54 17.454 26.4346 4.018 9.894496 6.038 20.49801 5.943 31.1898-.095 10.6918-2.303 21.2569-6.496 31.0773-4.192 9.8204-10.285 18.6987-17.92 26.1152l-144.605 145.8571c-7.41 7.463-16.205 13.38-25.883 17.413s-20.049 6.102-30.521 6.091zm-67.081 66.338c0 43.675-35.101 79.08-78.4 79.08s-78.3999-35.405-78.3999-79.08c0-43.674 35.1009-79.079 78.3999-79.079s78.4 35.405 78.4 79.079z" fill="url(#a)" fill-rule="evenodd" opacity=".05"/>
</svg>

